<svg width="1609" height="1324" viewBox="0 0 1609 1324" fill="none" xmlns="http://www.w3.org/2000/svg">
<path d="M336.914 0C366.211 4.06901 380.859 18.7174 380.859 43.9453V68.3594C380.859 96.8424 343.424 212.402 268.555 415.039C236.003 519.206 209.961 773.112 190.43 1176.76H195.312C224.609 1160.48 245.768 1152.34 258.789 1152.34C269.368 1152.34 280.762 1163.74 292.969 1186.52C292.969 1216.63 232.747 1254.07 112.305 1298.83C112.305 1306.15 89.5182 1314.29 43.9453 1323.24C14.6484 1315.92 0 1301.27 0 1279.3C0 1255.7 22.7865 1242.68 68.3594 1240.23C97.6562 1223.96 112.305 1214.19 112.305 1210.94C131.836 782.878 159.505 507.812 195.312 385.742C257.161 218.099 288.086 131.836 288.086 126.953C248.21 182.292 222.168 209.961 209.961 209.961H205.078C192.057 209.961 180.664 201.823 170.898 185.547V166.016C191.243 108.236 238.444 54.5247 312.5 4.88281L336.914 0ZM950.977 0C980.273 4.06901 994.922 18.7174 994.922 43.9453V68.3594C994.922 96.8424 957.487 212.402 882.617 415.039C850.065 519.206 824.023 773.112 804.492 1176.76H809.375C838.672 1160.48 859.831 1152.34 872.852 1152.34C883.431 1152.34 894.824 1163.74 907.031 1186.52C907.031 1216.63 846.81 1254.07 726.367 1298.83C726.367 1306.15 703.581 1314.29 658.008 1323.24C628.711 1315.92 614.062 1301.27 614.062 1279.3C614.062 1255.7 636.849 1242.68 682.422 1240.23C711.719 1223.96 726.367 1214.19 726.367 1210.94C745.898 782.878 773.568 507.812 809.375 385.742C871.224 218.099 902.148 131.836 902.148 126.953C862.272 182.292 836.23 209.961 824.023 209.961H819.141C806.12 209.961 794.727 201.823 784.961 185.547V166.016C805.306 108.236 852.507 54.5247 926.562 4.88281L950.977 0ZM1565.04 0C1594.34 4.06901 1608.98 18.7174 1608.98 43.9453V68.3594C1608.98 96.8424 1571.55 212.402 1496.68 415.039C1464.13 519.206 1438.09 773.112 1418.55 1176.76H1423.44C1452.73 1160.48 1473.89 1152.34 1486.91 1152.34C1497.49 1152.34 1508.89 1163.74 1521.09 1186.52C1521.09 1216.63 1460.87 1254.07 1340.43 1298.83C1340.43 1306.15 1317.64 1314.29 1272.07 1323.24C1242.77 1315.92 1228.12 1301.27 1228.12 1279.3C1228.12 1255.7 1250.91 1242.68 1296.48 1240.23C1325.78 1223.96 1340.43 1214.19 1340.43 1210.94C1359.96 782.878 1387.63 507.812 1423.44 385.742C1485.29 218.099 1516.21 131.836 1516.21 126.953C1476.33 182.292 1450.29 209.961 1438.09 209.961H1433.2C1420.18 209.961 1408.79 201.823 1399.02 185.547V166.016C1419.37 108.236 1466.57 54.5247 1540.62 4.88281L1565.04 0Z" fill="#FE4629"/>
</svg>
