<svg width="5266" height="3936" viewBox="0 0 5266 3936" fill="none" xmlns="http://www.w3.org/2000/svg">
<path d="M234.375 2737.36C298.828 2737.36 360.026 2779.03 417.969 2862.36C462.24 2971.08 484.375 3064.83 484.375 3143.61C484.375 3234.1 451.823 3294 386.719 3323.3C362.63 3333.71 340.495 3338.92 320.312 3338.92H304.688C273.438 3338.92 235.677 3320.69 191.406 3284.23C175.781 3263.4 154.948 3220.43 128.906 3155.33C94.401 3155.33 54.0365 3079.81 7.8125 2928.77C5.20833 2926.16 2.60417 2910.54 0 2881.89C0 2810.28 55.9896 2763.4 167.969 2741.27C198.568 2738.66 220.703 2737.36 234.375 2737.36ZM62.5 2877.98C62.5 2920.95 84.6354 2984.76 128.906 3069.39H132.812C141.276 3064.18 149.089 3061.58 156.25 3061.58C173.177 3061.58 186.198 3092.83 195.312 3155.33C222.656 3236.06 260.417 3276.42 308.594 3276.42C308.594 3279.03 309.896 3280.33 312.5 3280.33C385.417 3280.33 421.875 3230.85 421.875 3131.89C421.875 3038.14 393.229 2944.39 335.938 2850.64C292.318 2816.79 259.766 2799.86 238.281 2799.86C143.88 2799.86 86.5885 2820.69 66.4062 2862.36C63.8021 2866.92 62.5 2872.12 62.5 2877.98ZM829.141 2627.98C937.865 2639.7 1005.25 2716.53 1031.29 2858.45C1031.29 2880.59 1030.64 2898.82 1029.34 2913.14L1027.38 2928.77C1023.48 2964.57 996.458 3006.24 946.328 3053.77V3057.67C1056.35 3200.25 1110.72 3277.07 1109.41 3288.14L1107.46 3306.7C1106.81 3310.6 1099.65 3316.46 1085.98 3324.27L1074.26 3323.3C1059.28 3321.34 1046.59 3305.39 1036.17 3275.45L902.383 3103.57L812.539 3200.25C863.32 3288.79 887.734 3339.9 885.781 3353.57C883.828 3374.4 872.435 3383.52 851.602 3380.91C836.628 3379.61 822.956 3359.76 810.586 3321.34C739.622 3207.41 691.445 3052.79 666.055 2857.48C662.799 2840.55 663.776 2795.95 668.984 2723.69C690.469 2657.93 725.299 2627.98 773.477 2633.84C773.477 2629.94 792.031 2627.98 829.141 2627.98ZM730.508 2734.43C716.836 2860.08 738.971 2992.24 796.914 3130.91C797.565 3125.71 820.352 3098.36 865.273 3048.88C833.372 2995.5 815.143 2968.48 810.586 2967.83L808.633 2948.3C811.237 2927.46 824.258 2918.35 847.695 2920.95C862.669 2922.26 880.573 2947.65 901.406 2997.12L909.219 3002.01L913.125 3002.98C948.932 2964.57 968.138 2932.67 970.742 2907.28C965.534 2772.52 914.753 2699.92 818.398 2689.51C768.919 2684.3 739.622 2697.97 730.508 2730.52V2734.43ZM1398.52 2595.76C1412.19 2595.76 1427.81 2608.78 1445.39 2634.82V2646.54C1445.39 2669.98 1428.46 2681.7 1394.61 2681.7C1371.17 2669.33 1359.45 2655 1359.45 2638.73V2634.82C1364.66 2608.78 1377.68 2595.76 1398.52 2595.76ZM1437.58 2845.76C1461.02 2849.01 1472.73 2860.73 1472.73 2880.91V2892.63C1477.94 2969.46 1480.55 3011.12 1480.55 3017.63V3021.54C1480.55 3041.72 1479.24 3059.95 1476.64 3076.23C1489.66 3210.99 1505.29 3328.18 1523.52 3427.79L1503.98 3443.41H1492.27C1469.48 3443.41 1455.16 3410.86 1449.3 3345.76C1428.46 3224.01 1418.05 3134.17 1418.05 3076.23V2998.1C1418.05 2964.25 1415.44 2940.81 1410.23 2927.79C1401.77 2933 1393.96 2935.6 1386.8 2935.6C1373.12 2935.6 1362.71 2925.18 1355.55 2904.35C1355.55 2885.47 1375.08 2865.94 1414.14 2845.76H1437.58ZM1847.77 2709.04C1884.23 2713.6 1902.46 2727.92 1902.46 2752.01C1902.46 2768.28 1890.74 2777.4 1867.3 2779.35C1858.84 2774.14 1851.03 2771.54 1843.87 2771.54C1783.97 2821.67 1754.02 2871.15 1754.02 2919.98C1741 2955.13 1734.49 2986.38 1734.49 3013.73V3064.51C1734.49 3188.21 1772.25 3292.37 1847.77 3377.01L1875.12 3384.82C1892.04 3384.82 1912.88 3340.55 1937.62 3252.01V3189.51C1867.3 3177.14 1832.15 3162.82 1832.15 3146.54V3123.1C1838.66 3110.08 1849.08 3103.57 1863.4 3103.57C1894.65 3119.2 1920.69 3127.01 1941.52 3127.01C1975.38 3127.01 2033.97 3107.48 2117.3 3068.41C2136.18 3042.37 2151.81 3029.35 2164.18 3029.35C2179.8 3029.35 2190.22 3038.47 2195.43 3056.7C2195.43 3101.62 2129.02 3143.28 1996.21 3181.7L2000.12 3189.51V3216.85C2000.12 3315.81 1966.26 3391.33 1898.55 3443.41L1871.21 3447.32C1784.62 3447.32 1719.52 3340.55 1675.9 3127.01C1673.29 3097.06 1671.99 3068.41 1671.99 3041.07V3013.73C1680.46 2927.14 1703.89 2850.32 1742.3 2783.26C1783.97 2733.78 1819.13 2709.04 1847.77 2709.04ZM2400.55 2595.76C2414.22 2595.76 2429.84 2608.78 2447.42 2634.82V2646.54C2447.42 2669.98 2430.49 2681.7 2396.64 2681.7C2373.2 2669.33 2361.48 2655 2361.48 2638.73V2634.82C2366.69 2608.78 2379.71 2595.76 2400.55 2595.76ZM2439.61 2845.76C2463.05 2849.01 2474.77 2860.73 2474.77 2880.91V2892.63C2479.97 2969.46 2482.58 3011.12 2482.58 3017.63V3021.54C2482.58 3041.72 2481.28 3059.95 2478.67 3076.23C2491.69 3210.99 2507.32 3328.18 2525.55 3427.79L2506.02 3443.41H2494.3C2471.51 3443.41 2457.19 3410.86 2451.33 3345.76C2430.49 3224.01 2420.08 3134.17 2420.08 3076.23V2998.1C2420.08 2964.25 2417.47 2940.81 2412.27 2927.79C2403.8 2933 2395.99 2935.6 2388.83 2935.6C2375.16 2935.6 2364.74 2925.18 2357.58 2904.35C2357.58 2885.47 2377.11 2865.94 2416.17 2845.76H2439.61ZM3046.09 2789.12C3055.86 2789.12 3066.28 2796.93 3077.34 2812.55C3069.53 2862.03 3065.62 2894.59 3065.62 2910.21V3250.05C3065.62 3307.35 3052.6 3335.99 3026.56 3335.99C3000.52 3335.99 2948.44 3256.57 2870.31 3097.71C2839.06 3041.72 2823.44 3003.96 2823.44 2984.43H2819.53L2733.59 3355.52L2741.41 3375.05C2734.9 3395.89 2724.48 3406.3 2710.16 3406.3C2686.72 3403.05 2675 3391.33 2675 3371.15V3355.52C2675 3325.58 2711.46 3169.33 2784.38 2886.77C2795.44 2876.36 2808.46 2871.15 2823.44 2871.15C2844.27 2871.15 2871.61 2927.14 2905.47 3039.12C2945.18 3119.2 2977.73 3176.49 3003.12 3210.99V3203.18C3003.12 3128.31 3004.43 3044.98 3007.03 2953.18L3003.12 2898.49C3008.98 2828.18 3020.7 2793.02 3038.28 2793.02L3046.09 2789.12ZM3579.34 2789.12H3587.15C3608.63 2789.12 3629.47 2867.24 3649.65 3023.49C3651.6 3023.49 3656.81 3043.02 3665.27 3082.09C3695.87 3079.48 3718.01 3078.18 3731.68 3078.18H3747.3C3760.33 3084.69 3766.84 3095.11 3766.84 3109.43C3766.84 3130.26 3742.1 3140.68 3692.62 3140.68H3684.8L3676.99 3144.59C3708.24 3283.26 3730.38 3374.4 3743.4 3418.02V3421.93C3740.79 3442.76 3730.38 3453.18 3712.15 3453.18C3688.06 3453.18 3667.23 3398.49 3649.65 3289.12C3647.04 3285.21 3635.33 3237.03 3614.49 3144.59C3515.53 3146.54 3466.05 3153.05 3466.05 3164.12L3391.84 3367.24V3371.15L3395.74 3378.96C3395.74 3395.89 3384.02 3406.3 3360.59 3410.21C3344.31 3410.21 3333.89 3395.89 3329.34 3367.24C3339.75 3323.62 3410.07 3138.73 3540.27 2812.55C3552.64 2796.93 3565.66 2789.12 3579.34 2789.12ZM3563.71 2914.12C3563.71 2922.58 3541.58 2979.87 3497.3 3085.99H3594.96L3602.77 3082.09C3589.75 3033.91 3579.34 2977.92 3571.52 2914.12H3563.71ZM4004.18 2799.86H4023.71C4075.79 2841.53 4101.84 2941.79 4101.84 3100.64C4112.25 3146.86 4123.97 3239.31 4136.99 3377.98C4142.2 3377.98 4144.8 3391.01 4144.8 3417.05V3428.77L4172.15 3432.67C4227.49 3430.07 4260.04 3428.77 4269.8 3428.77C4283.48 3431.37 4291.29 3432.67 4293.24 3432.67C4296.5 3430.07 4305.61 3428.77 4320.59 3428.77C4323.84 3428.77 4330.35 3435.28 4340.12 3448.3V3467.83C4331 3483.45 4319.28 3491.27 4304.96 3491.27H4269.8C4242.46 3491.27 4213.82 3492.57 4183.87 3495.17C4169.54 3492.57 4155.22 3491.27 4140.9 3491.27L4125.27 3495.17C4094.02 3495.17 4078.4 3460.02 4078.4 3389.7C4052.36 3189.83 4035.43 3038.79 4027.62 2936.58C4017.2 2896.86 4002.88 2863.01 3984.65 2835.02V2819.39C3984.65 2816.14 3991.16 2809.62 4004.18 2799.86ZM4776.68 2814.51C4792.3 2821.02 4800.77 2828.18 4802.07 2835.99L4801.09 2851.62C4794.58 2865.29 4790.35 2883.19 4788.4 2905.33C4864.57 2959.36 4933.58 2993.87 4995.43 3008.84C5048.82 3029.03 5074.53 3050.84 5072.58 3074.27C5071.28 3087.95 5059.88 3097.39 5038.4 3102.59C5011.05 3079.16 4959.62 3056.7 4884.1 3035.21C4856.76 3024.14 4819.32 3001.36 4771.8 2966.85L4763.98 2965.88C4760.08 3010.8 4744.78 3069.72 4718.09 3142.63C4845.69 3212.29 4908.52 3259.17 4906.56 3283.26C4896.15 3300.84 4884.75 3309.3 4872.38 3308.65C4848.95 3296.28 4800.77 3266.01 4727.85 3217.83L4693.67 3199.27L4623.36 3381.89C4685.86 3421.6 4772.12 3456.11 4882.15 3485.41C4912.75 3492.57 4927.07 3506.89 4925.12 3528.38C4916 3545.95 4903.63 3554.09 4888.01 3552.79C4792.96 3523.49 4725.57 3500.71 4685.86 3484.43C4637.68 3457.09 4610.01 3443.09 4602.85 3442.44H4598.95C4598.29 3452.85 4590.16 3457.41 4574.53 3456.11L4562.81 3455.13C4553.05 3454.48 4546.54 3438.21 4543.28 3406.3C4525.7 3397.19 4517.57 3383.52 4518.87 3365.29L4519.84 3353.57C4527.66 3341.2 4538.72 3335.67 4553.05 3336.97L4572.58 3341.85C4598.62 3283.26 4620.1 3226.29 4637.03 3170.95C4625.31 3156.63 4620.1 3143.28 4621.41 3130.91C4633.12 3110.73 4648.1 3101.62 4666.33 3103.57C4690.42 3037.82 4704.09 2983.78 4707.34 2941.46C4691.07 2940.16 4682.93 2927.79 4682.93 2904.35C4683.58 2893.93 4698.55 2884.82 4727.85 2877.01C4736.32 2833.39 4752.59 2812.55 4776.68 2814.51Z" fill="#FE4629"/>
<path d="M2001.38 1093.53C2030.68 1097.59 2045.33 1112.24 2045.33 1137.47V1161.88C2045.33 1190.37 2007.89 1305.93 1933.02 1508.56C1900.47 1612.73 1874.43 1866.64 1854.9 2270.28H1859.78C1889.08 2254.01 1910.24 2245.87 1923.26 2245.87C1933.84 2245.87 1945.23 2257.26 1957.44 2280.05C1957.44 2310.16 1897.22 2347.59 1776.77 2392.35C1776.77 2399.68 1753.99 2407.82 1708.41 2416.77C1679.12 2409.44 1664.47 2394.79 1664.47 2372.82C1664.47 2349.22 1687.26 2336.2 1732.83 2333.76C1762.12 2317.48 1776.77 2307.72 1776.77 2304.46C1796.3 1876.4 1823.97 1601.34 1859.78 1479.27C1921.63 1311.62 1952.55 1225.36 1952.55 1220.48C1912.68 1275.82 1886.64 1303.49 1874.43 1303.49H1869.55C1856.53 1303.49 1845.13 1295.35 1835.37 1279.07V1259.54C1855.71 1201.76 1902.91 1148.05 1976.97 1098.41L2001.38 1093.53ZM2615.45 1093.53C2644.74 1097.59 2659.39 1112.24 2659.39 1137.47V1161.88C2659.39 1190.37 2621.96 1305.93 2547.09 1508.56C2514.53 1612.73 2488.49 1866.64 2468.96 2270.28H2473.84C2503.14 2254.01 2524.3 2245.87 2537.32 2245.87C2547.9 2245.87 2559.29 2257.26 2571.5 2280.05C2571.5 2310.16 2511.28 2347.59 2390.84 2392.35C2390.84 2399.68 2368.05 2407.82 2322.48 2416.77C2293.18 2409.44 2278.53 2394.79 2278.53 2372.82C2278.53 2349.22 2301.32 2336.2 2346.89 2333.76C2376.19 2317.48 2390.84 2307.72 2390.84 2304.46C2410.37 1876.4 2438.04 1601.34 2473.84 1479.27C2535.69 1311.62 2566.62 1225.36 2566.62 1220.48C2526.74 1275.82 2500.7 1303.49 2488.49 1303.49H2483.61C2470.59 1303.49 2459.2 1295.35 2449.43 1279.07V1259.54C2469.77 1201.76 2516.98 1148.05 2591.03 1098.41L2615.45 1093.53ZM3229.51 1093.53C3258.8 1097.59 3273.45 1112.24 3273.45 1137.47V1161.88C3273.45 1190.37 3236.02 1305.93 3161.15 1508.56C3128.6 1612.73 3102.55 1866.64 3083.02 2270.28H3087.91C3117.2 2254.01 3138.36 2245.87 3151.38 2245.87C3161.96 2245.87 3173.36 2257.26 3185.56 2280.05C3185.56 2310.16 3125.34 2347.59 3004.9 2392.35C3004.9 2399.68 2982.11 2407.82 2936.54 2416.77C2907.24 2409.44 2892.59 2394.79 2892.59 2372.82C2892.59 2349.22 2915.38 2336.2 2960.95 2333.76C2990.25 2317.48 3004.9 2307.72 3004.9 2304.46C3024.43 1876.4 3052.1 1601.34 3087.91 1479.27C3149.76 1311.62 3180.68 1225.36 3180.68 1220.48C3140.8 1275.82 3114.76 1303.49 3102.55 1303.49H3097.67C3084.65 1303.49 3073.26 1295.35 3063.49 1279.07V1259.54C3083.84 1201.76 3131.04 1148.05 3205.09 1098.41L3229.51 1093.53Z" fill="#FE4629"/>
</svg>
