<svg width="121" height="31" viewBox="0 0 121 31" fill="none" xmlns="http://www.w3.org/2000/svg">
<path d="M31.688 5.96C31.688 7.88 30.776 9.704 29 11.336C27.176 12.968 24.776 13.928 21.8 14.12C22.472 14.6 23 15.368 23.432 16.424C23.864 17.528 24.104 18.728 24.104 20.072C24.104 23.24 23.048 25.784 20.984 27.656C18.872 29.576 16.616 30.488 14.12 30.488C12.488 30.488 11.192 30.056 10.136 29.192C9.08 28.328 8.6 27.08 8.6 25.448C8.6 23.912 9.272 22.472 10.712 21.128C12.104 19.784 14.024 19.016 16.472 18.728L17.096 20.216C15.896 20.504 14.984 20.936 14.312 21.608C13.64 22.28 13.304 22.952 13.304 23.624C13.304 24.056 13.448 24.392 13.736 24.632C14.024 24.92 14.408 25.016 14.984 25.016C16.472 25.016 17.768 24.2 18.872 22.568C19.976 20.936 20.552 19.352 20.552 17.912C20.552 17.048 20.264 16.328 19.784 15.8C19.256 15.32 18.824 15.032 18.44 14.936C18.056 14.84 17.672 14.792 17.336 14.792H16.472C15.032 16.328 13.688 17.576 12.344 18.536C10.136 20.12 7.88 20.888 5.576 20.888C4.136 20.888 2.936 20.552 2.024 19.88C1.112 19.208 0.68 18.248 0.68 17C0.68 16.328 0.872 15.704 1.352 15.128H4.856C4.088 15.656 3.848 16.328 4.088 17.096C4.328 17.912 5.096 18.296 6.344 18.296C7.016 18.296 7.784 18.104 8.552 17.624C9.32 17.144 10.136 16.472 11 15.512C11.864 14.6 12.584 13.736 13.208 12.968C13.832 12.2 14.6 11.24 15.512 10.04C16.376 8.84 17 8.024 17.384 7.544H22.424C21.848 8.216 21.272 8.936 20.744 9.656C19.928 10.712 19.16 11.624 18.488 12.44C18.584 12.44 18.776 12.488 19.064 12.488C19.304 12.488 19.496 12.488 19.592 12.488C21.416 12.488 22.952 11.912 24.248 10.664C25.496 9.464 26.168 8.216 26.168 6.872C26.168 6.104 25.88 5.432 25.304 4.952C24.728 4.472 23.912 4.184 22.808 4.184C21.272 4.184 19.592 4.664 17.864 5.576C16.136 6.536 14.552 7.784 13.208 9.368L12.2 6.152C13.88 4.424 15.848 3.08 18.104 2.12C20.312 1.16 22.52 0.631999 24.728 0.631999C26.744 0.631999 28.424 1.112 29.72 1.976C31.016 2.888 31.688 4.232 31.688 5.96ZM43.1311 17.576C41.8351 18.68 40.6351 19.208 39.5791 19.208C39.0991 19.208 38.6671 19.16 38.2831 19.016C37.3231 20.264 36.0271 21.368 34.3951 22.28C32.7631 23.192 31.2271 23.624 29.7871 23.624C28.5391 23.624 27.5791 23.336 26.9071 22.712C26.2351 22.088 25.9471 21.272 25.9471 20.216C25.9471 18.968 26.5231 17.816 27.6751 16.76C28.6351 15.848 29.8831 15.08 31.4191 14.504C32.9551 13.928 34.3951 13.592 35.7391 13.592C36.8431 13.592 37.7551 13.832 38.4271 14.264C39.0991 14.696 39.4831 15.32 39.4831 16.136C39.4831 16.568 39.3871 17 39.1951 17.432C39.5791 17.624 40.0111 17.624 40.5871 17.48C41.1151 17.384 41.5471 17.144 41.9311 16.76L43.1311 17.576ZM31.8991 20.408C32.6191 20.408 33.3871 20.216 34.2511 19.736C35.1151 19.256 35.7871 18.728 36.3631 18.056C35.9791 17.768 35.7871 17.432 35.7871 17.048C35.7871 16.472 36.0751 16.184 36.7471 16.184H36.9871C36.8431 15.992 36.5551 15.896 36.1711 15.896C35.1631 15.896 34.0111 16.376 32.6671 17.24C31.3231 18.152 30.6991 18.92 30.6991 19.592C30.6991 20.168 31.0831 20.408 31.8991 20.408ZM65.4965 16.808L66.7925 17.72C65.2565 19.304 63.6245 20.6 61.8005 21.656C59.9765 22.712 58.4885 23.24 57.2405 23.24C55.9925 23.24 55.2725 22.712 55.0325 21.56C54.9365 21.08 55.0805 20.36 55.3685 19.4C55.6565 18.44 55.8005 17.864 55.8005 17.672C55.8005 17.096 55.5125 16.808 54.9365 16.808C54.0725 16.808 53.2085 17.48 52.3445 18.776C51.4325 20.072 50.6645 21.464 50.0405 23H44.8085C46.3445 20.216 47.1605 18.44 47.1605 17.672C47.1605 17.192 46.9205 16.952 46.4885 16.952C45.8645 16.952 45.0005 17.576 43.8965 18.824C42.7445 20.072 41.7845 21.464 40.9205 23H36.3605L43.0325 13.688H46.7765L45.3365 15.752C47.5445 14.36 49.3685 13.64 50.8085 13.64C52.2485 13.64 52.9685 14.36 52.9685 15.704C54.7445 14.36 56.6645 13.64 58.6805 13.64C60.2165 13.64 61.0325 14.216 61.0325 15.368C61.0325 15.8 60.8405 16.376 60.5525 17.096C60.2165 17.816 60.0725 18.344 60.0725 18.728C60.0725 19.4 60.3605 19.736 61.0325 19.736C61.8965 19.736 63.3845 18.776 65.4965 16.808ZM81.515 16.76L82.811 17.672C81.371 19.16 79.163 20.456 76.187 21.56C73.163 22.712 70.475 23.24 68.075 23.24C65.195 23.24 63.707 22.424 63.707 20.696C63.707 19.736 64.283 18.44 65.435 16.808C66.587 15.224 68.843 12.392 72.299 8.312H77.339L70.907 14.744C72.923 13.784 74.939 13.256 76.859 13.256C78.299 13.256 79.019 13.784 79.019 14.84C79.019 15.608 78.635 16.472 77.915 17.48C77.195 18.488 76.235 19.4 75.083 20.264C77.147 19.736 79.307 18.584 81.515 16.76ZM71.003 19.784C72.155 18.968 72.779 18.2 72.779 17.432C72.779 16.904 72.443 16.616 71.819 16.616C71.147 16.616 70.283 17 69.227 17.72C67.979 18.584 67.403 19.4 67.403 20.072C67.403 20.6 67.691 20.84 68.363 20.84C69.083 20.84 69.947 20.504 71.003 19.784ZM94.4285 16.808L95.7245 17.72C91.4525 21.752 87.1805 23.72 82.9085 23.72C81.3245 23.72 80.1725 23.48 79.4045 22.904C78.6365 22.376 78.2525 21.656 78.2525 20.792C78.2525 19.448 78.9725 18.056 80.5085 16.616C82.8125 14.6 85.5005 13.592 88.5725 13.592C89.6285 13.592 90.3965 13.784 90.9725 14.168C91.5485 14.552 91.8365 15.08 91.8365 15.656C91.8365 16.712 91.3085 17.624 90.3005 18.296C89.2445 18.968 88.0925 19.304 86.8445 19.304C85.6925 19.304 84.7805 19.016 84.1085 18.392C83.9165 18.728 83.8685 19.016 83.8685 19.208C83.8685 19.976 84.5885 20.36 86.1245 20.36C87.3725 20.36 88.7645 20.072 90.3005 19.448C91.8365 18.824 93.2285 17.96 94.4285 16.808ZM89.4845 16.376C89.4845 16.088 89.1005 15.896 88.4285 15.896C87.0845 15.896 85.8845 16.424 84.8285 17.432C85.4045 17.624 85.9805 17.672 86.6045 17.672C87.3725 17.672 88.0445 17.576 88.6205 17.336C89.1965 17.144 89.4845 16.808 89.4845 16.376ZM97.8841 19.736C99.0361 19.736 100.764 18.776 103.02 16.76L104.364 17.72C100.812 21.416 97.7401 23.24 95.0521 23.24C94.0921 23.24 93.3721 23 92.7961 22.52C92.2201 22.04 91.9801 21.368 91.9801 20.552C91.9801 19.496 92.4601 18.2 93.5161 16.76C93.9481 16.184 94.7161 15.176 95.8681 13.784H93.8521L95.6281 11.24H97.9801L100.428 8.312H105.468L103.116 10.76L106.524 10.52L103.548 13.784H100.236C98.0761 16.232 97.0201 17.912 97.0201 18.872C97.0201 19.448 97.3081 19.736 97.8841 19.736ZM102.217 23.24C100.393 23.24 99.4809 22.568 99.4809 21.128C99.4809 19.592 100.297 18.152 102.025 16.76C104.569 14.744 107.785 13.736 111.673 13.736C112.729 13.736 113.641 13.832 114.457 13.976C115.273 14.12 115.849 14.264 116.137 14.408L116.569 14.648C115.369 16.328 114.793 17.576 114.793 18.44C114.793 19.064 115.033 19.352 115.609 19.352C116.569 19.352 117.913 18.488 119.641 16.76L120.937 17.72C117.433 21.368 114.553 23.192 112.249 23.192C111.433 23.192 110.809 22.952 110.377 22.472C109.897 21.992 109.705 21.368 109.705 20.552V20.216C106.969 22.232 104.473 23.24 102.217 23.24ZM106.249 19.784C107.737 19.784 109.705 18.536 112.105 15.944C111.865 15.896 111.433 15.848 110.857 15.848C109.417 15.848 108.169 16.28 107.017 17.048C105.865 17.816 105.337 18.536 105.337 19.16C105.337 19.592 105.625 19.784 106.249 19.784Z" fill="#FAF5EB"/>
</svg>
