<svg width="759" height="201" viewBox="0 0 759 201" fill="none" xmlns="http://www.w3.org/2000/svg">
<path d="M158.8 39.6C156.4 39.6 154 39.2 152 37.6C148.8 35.2 147.2 31.6 147.2 26.8C147.2 22 148.8 17.6 152.4 13.2C156.4 7.60002 161.6 4.80002 168 4.80002C175.6 4.80002 179.6 8.80002 179.6 16.8C179.6 21.6 178 26.4 174.8 30.8C170.4 36.8 165.2 39.6 158.8 39.6ZM-4.76837e-07 200.8L15.2 153.2C34.4 153.2 52.8 146 69.6 130.8C86.4 116 103.2 93.6 120 63.2H114.8L125.2 45.2H169.2C162.8 54 155.6 64.4 146.8 76.4C138 88.8 130.4 99.2 124.4 107.6C118 116.4 112.4 123.6 107.6 130C70.4 177.2 34.4 200.8 -4.76837e-07 200.8ZM163.906 124.4C148.706 124.4 141.106 118.8 141.106 106.8C141.106 94 147.906 82 162.306 70.4C183.506 53.6 210.306 45.2 242.706 45.2C251.506 45.2 259.106 46 265.906 47.2C272.706 48.4 277.506 49.6 279.906 50.8L283.506 52.8C273.506 66.8 268.706 77.2 268.706 84.4C268.706 89.6 270.706 92 275.506 92C283.506 92 294.706 84.8 309.106 70.4L319.906 78.4C290.706 108.8 266.706 124 247.506 124C240.706 124 235.506 122 231.906 118C227.906 114 226.306 108.8 226.306 102V99.2C203.506 116 182.706 124.4 163.906 124.4ZM197.506 95.6C209.906 95.6 226.306 85.2 246.306 63.6C244.306 63.2 240.706 62.8 235.906 62.8C223.906 62.8 213.506 66.4 203.906 72.8C194.306 79.2 189.906 85.2 189.906 90.4C189.906 94 192.306 95.6 197.506 95.6ZM433.181 65.6L437.581 76.8C423.981 84.8 412.381 88.8 402.781 88.8C394.381 88.8 389.581 86 388.381 80.4C376.781 94.8 363.581 105.6 348.781 113.2C333.581 120.8 319.981 124.4 307.981 124.4C299.981 124.4 293.981 122.8 289.181 119.6C284.381 116.4 282.381 112 282.381 105.6C282.381 96.8 288.381 85.6 300.381 71.2C312.381 57.2 318.381 47.2 318.381 40.8C318.381 40 317.981 38.8 317.581 36.4H341.181C341.981 38.4 342.381 40.8 342.381 43.6C342.381 50 339.581 57.6 334.781 66.8C329.581 76 325.181 83.2 321.581 88.8C317.981 94.4 317.581 97.2 319.981 97.2C327.181 97.2 335.581 92 344.381 81.2C353.181 70.4 359.581 58.4 363.581 45.2H409.581C407.181 51.6 406.381 57.2 406.381 62C406.381 68.8 408.781 72 413.581 72C418.781 72 425.181 70 433.181 65.6ZM458.172 39.6C455.772 39.6 453.372 39.2 451.372 37.6C448.172 35.2 446.572 31.6 446.572 26.8C446.572 22.4 448.172 18 451.372 13.2C455.772 7.60002 460.972 4.80002 466.972 4.80002C474.572 4.80002 478.572 8.80002 478.572 16.8C478.572 21.6 476.972 26.4 473.772 30.8C469.372 36.8 464.172 39.6 458.172 39.6ZM426.172 124C418.972 124 413.372 122 409.772 118C406.172 114 404.572 108.4 404.572 101.6C404.572 95.2 406.172 88.8 410.172 81.6C414.172 74.4 418.972 67.2 424.972 59.6C430.572 52.4 434.172 47.6 435.772 45.2H471.372C455.372 64 447.372 77.2 447.372 84.4C447.372 89.6 449.372 92 454.172 92C462.172 92 472.972 84.8 487.372 70.4L498.572 78.4C469.372 108.8 445.372 124 426.172 124ZM443.322 200.8L458.922 153.2C474.522 153.2 491.322 146.4 509.322 132.8C527.322 119.2 538.522 108 543.322 99.2C522.522 116 501.722 124.4 480.522 124.4C465.322 124.4 457.722 119.2 457.722 108C457.722 92.4 466.522 78.4 484.922 66.4C505.722 52.4 530.522 45.2 559.322 45.2C568.122 45.2 576.122 46 582.922 47.2C589.722 48.4 594.522 49.6 596.922 50.8L600.522 52.8C589.322 68.8 580.122 81.2 573.722 90.4C566.922 99.6 558.922 110 550.122 122C540.922 134 533.322 143.2 527.322 150C520.922 156.8 514.122 164 506.122 171.2C498.122 178.8 491.322 184.4 484.922 188C478.522 191.6 472.122 194.8 464.922 197.2C457.722 199.6 450.522 200.8 443.322 200.8ZM514.522 95.6C526.522 95.6 542.922 85.2 563.322 63.6C560.922 63.2 557.322 62.8 552.522 62.8C540.922 62.8 530.522 66.4 520.922 72.8C511.322 79.2 506.922 85.2 506.922 90.4C506.922 94 509.322 95.6 514.522 95.6ZM637.484 39.6C635.084 39.6 632.684 39.2 630.684 37.6C627.484 35.2 625.884 31.6 625.884 26.8C625.884 22.4 627.484 18 630.684 13.2C635.084 7.60002 640.284 4.80002 646.284 4.80002C653.884 4.80002 657.884 8.80002 657.884 16.8C657.884 21.6 656.284 26.4 653.084 30.8C648.684 36.8 643.484 39.6 637.484 39.6ZM605.484 124C598.284 124 592.684 122 589.084 118C585.484 114 583.884 108.4 583.884 101.6C583.884 95.2 585.484 88.8 589.484 81.6C593.484 74.4 598.284 67.2 604.284 59.6C609.884 52.4 613.484 47.6 615.084 45.2H650.684C634.684 64 626.684 77.2 626.684 84.4C626.684 89.6 628.684 92 633.484 92C641.484 92 652.284 84.8 666.684 70.4L677.884 78.4C648.684 108.8 624.684 124 605.484 124ZM671.434 124.4C663.434 124.4 657.434 122.4 652.634 118.4C647.834 114.4 645.834 108.8 645.834 102C645.834 93.2 649.434 84 656.634 73.6C663.834 63.6 683.434 39.2 716.234 1.4782e-05H758.234C754.234 4.40002 747.434 11.6 737.834 21.2C728.234 30.8 721.834 38 717.834 42.4C713.834 46.8 708.634 52.4 703.034 59.2C697.434 66 693.434 71.6 691.034 76C688.634 80.8 687.834 84.8 687.834 88C687.834 92.8 690.234 95.2 695.034 95.2C704.634 95.2 719.034 87.2 737.834 70.4L749.034 78.4C719.434 109.2 693.834 124.4 671.434 124.4Z" fill="white"/>
</svg>
