<svg width="5076" height="959" viewBox="0 0 5076 959" fill="none" xmlns="http://www.w3.org/2000/svg">
<path d="M234.375 141.602C298.828 141.602 360.026 183.268 417.969 266.602C462.24 375.326 484.375 469.076 484.375 547.852C484.375 638.346 451.823 698.242 386.719 727.539C362.63 737.956 340.495 743.164 320.312 743.164H304.688C273.438 743.164 235.677 724.935 191.406 688.477C175.781 667.643 154.948 624.674 128.906 559.57C94.401 559.57 54.0365 484.049 7.8125 333.008C5.20833 330.404 2.60417 314.779 0 286.133C0 214.518 55.9896 167.643 167.969 145.508C198.568 142.904 220.703 141.602 234.375 141.602ZM62.5 282.227C62.5 325.195 84.6354 388.997 128.906 473.633H132.812C141.276 468.424 149.089 465.82 156.25 465.82C173.177 465.82 186.198 497.07 195.312 559.57C222.656 640.299 260.417 680.664 308.594 680.664C308.594 683.268 309.896 684.57 312.5 684.57C385.417 684.57 421.875 635.091 421.875 536.133C421.875 442.383 393.229 348.633 335.938 254.883C292.318 221.029 259.766 204.102 238.281 204.102C143.88 204.102 86.5885 224.935 66.4062 266.602C63.8021 271.159 62.5 276.367 62.5 282.227ZM829.141 32.2266C937.865 43.9453 1005.25 120.768 1031.29 262.695C1031.29 284.831 1030.64 303.06 1029.34 317.383L1027.38 333.008C1023.48 368.815 996.458 410.482 946.328 458.008V461.914C1056.35 604.492 1110.72 681.315 1109.41 692.383L1107.46 710.938C1106.81 714.844 1099.65 720.703 1085.98 728.516L1074.26 727.539C1059.28 725.586 1046.59 709.635 1036.17 679.688L902.383 507.812L812.539 604.492C863.32 693.034 887.734 744.141 885.781 757.812C883.828 778.646 872.435 787.76 851.602 785.156C836.628 783.854 822.956 763.997 810.586 725.586C739.622 611.654 691.445 457.031 666.055 261.719C662.799 244.792 663.776 200.195 668.984 127.93C690.469 62.1745 725.299 32.2266 773.477 38.0859C773.477 34.1797 792.031 32.2266 829.141 32.2266ZM730.508 138.672C716.836 264.323 738.971 396.484 796.914 535.156C797.565 529.948 820.352 502.604 865.273 453.125C833.372 399.74 815.143 372.721 810.586 372.07L808.633 352.539C811.237 331.706 824.258 322.591 847.695 325.195C862.669 326.497 880.573 351.888 901.406 401.367L909.219 406.25L913.125 407.227C948.932 368.815 968.138 336.914 970.742 311.523C965.534 176.758 914.753 104.167 818.398 93.75C768.919 88.5417 739.622 102.214 730.508 134.766V138.672ZM1398.52 0C1412.19 0 1427.81 13.0208 1445.39 39.0625V50.7812C1445.39 74.2188 1428.46 85.9375 1394.61 85.9375C1371.17 73.5677 1359.45 59.2448 1359.45 42.9688V39.0625C1364.66 13.0208 1377.68 0 1398.52 0ZM1437.58 250C1461.02 253.255 1472.73 264.974 1472.73 285.156V296.875C1477.94 373.698 1480.55 415.365 1480.55 421.875V425.781C1480.55 445.964 1479.24 464.193 1476.64 480.469C1489.66 615.234 1505.29 732.422 1523.52 832.031L1503.98 847.656H1492.27C1469.48 847.656 1455.16 815.104 1449.3 750C1428.46 628.255 1418.05 538.411 1418.05 480.469V402.344C1418.05 368.49 1415.44 345.052 1410.23 332.031C1401.77 337.24 1393.96 339.844 1386.8 339.844C1373.12 339.844 1362.71 329.427 1355.55 308.594C1355.55 289.714 1375.08 270.182 1414.14 250H1437.58ZM1847.77 113.281C1884.23 117.839 1902.46 132.161 1902.46 156.25C1902.46 172.526 1890.74 181.641 1867.3 183.594C1858.84 178.385 1851.03 175.781 1843.87 175.781C1783.97 225.911 1754.02 275.391 1754.02 324.219C1741 359.375 1734.49 390.625 1734.49 417.969V468.75C1734.49 592.448 1772.25 696.615 1847.77 781.25L1875.12 789.062C1892.04 789.062 1912.88 744.792 1937.62 656.25V593.75C1867.3 581.38 1832.15 567.057 1832.15 550.781V527.344C1838.66 514.323 1849.08 507.812 1863.4 507.812C1894.65 523.438 1920.69 531.25 1941.52 531.25C1975.38 531.25 2033.97 511.719 2117.3 472.656C2136.18 446.615 2151.81 433.594 2164.18 433.594C2179.8 433.594 2190.22 442.708 2195.43 460.938C2195.43 505.859 2129.02 547.526 1996.21 585.938L2000.12 593.75V621.094C2000.12 720.052 1966.26 795.573 1898.55 847.656L1871.21 851.562C1784.62 851.562 1719.52 744.792 1675.9 531.25C1673.29 501.302 1671.99 472.656 1671.99 445.312V417.969C1680.46 331.38 1703.89 254.557 1742.3 187.5C1783.97 138.021 1819.13 113.281 1847.77 113.281ZM2400.55 0C2414.22 0 2429.84 13.0208 2447.42 39.0625V50.7812C2447.42 74.2188 2430.49 85.9375 2396.64 85.9375C2373.2 73.5677 2361.48 59.2448 2361.48 42.9688V39.0625C2366.69 13.0208 2379.71 0 2400.55 0ZM2439.61 250C2463.05 253.255 2474.77 264.974 2474.77 285.156V296.875C2479.97 373.698 2482.58 415.365 2482.58 421.875V425.781C2482.58 445.964 2481.28 464.193 2478.67 480.469C2491.69 615.234 2507.32 732.422 2525.55 832.031L2506.02 847.656H2494.3C2471.51 847.656 2457.19 815.104 2451.33 750C2430.49 628.255 2420.08 538.411 2420.08 480.469V402.344C2420.08 368.49 2417.47 345.052 2412.27 332.031C2403.8 337.24 2395.99 339.844 2388.83 339.844C2375.16 339.844 2364.74 329.427 2357.58 308.594C2357.58 289.714 2377.11 270.182 2416.17 250H2439.61ZM3046.09 193.359C3055.86 193.359 3066.28 201.172 3077.34 216.797C3069.53 266.276 3065.62 298.828 3065.62 314.453V654.297C3065.62 711.589 3052.6 740.234 3026.56 740.234C3000.52 740.234 2948.44 660.807 2870.31 501.953C2839.06 445.964 2823.44 408.203 2823.44 388.672H2819.53L2733.59 759.766L2741.41 779.297C2734.9 800.13 2724.48 810.547 2710.16 810.547C2686.72 807.292 2675 795.573 2675 775.391V759.766C2675 729.818 2711.46 573.568 2784.38 291.016C2795.44 280.599 2808.46 275.391 2823.44 275.391C2844.27 275.391 2871.61 331.38 2905.47 443.359C2945.18 523.438 2977.73 580.729 3003.12 615.234V607.422C3003.12 532.552 3004.43 449.219 3007.03 357.422L3003.12 302.734C3008.98 232.422 3020.7 197.266 3038.28 197.266L3046.09 193.359ZM3579.34 193.359H3587.15C3608.63 193.359 3629.47 271.484 3649.65 427.734C3651.6 427.734 3656.81 447.266 3665.27 486.328C3695.87 483.724 3718.01 482.422 3731.68 482.422H3747.3C3760.33 488.932 3766.84 499.349 3766.84 513.672C3766.84 534.505 3742.1 544.922 3692.62 544.922H3684.8L3676.99 548.828C3708.24 687.5 3730.38 778.646 3743.4 822.266V826.172C3740.79 847.005 3730.38 857.422 3712.15 857.422C3688.06 857.422 3667.23 802.734 3649.65 693.359C3647.04 689.453 3635.33 641.276 3614.49 548.828C3515.53 550.781 3466.05 557.292 3466.05 568.359L3391.84 771.484V775.391L3395.74 783.203C3395.74 800.13 3384.02 810.547 3360.59 814.453C3344.31 814.453 3333.89 800.13 3329.34 771.484C3339.75 727.865 3410.07 542.969 3540.27 216.797C3552.64 201.172 3565.66 193.359 3579.34 193.359ZM3563.71 318.359C3563.71 326.823 3541.58 384.115 3497.3 490.234H3594.96L3602.77 486.328C3589.75 438.151 3579.34 382.161 3571.52 318.359H3563.71ZM4004.18 204.102H4023.71C4075.79 245.768 4101.84 346.029 4101.84 504.883C4112.25 551.107 4123.97 643.555 4136.99 782.227C4142.2 782.227 4144.8 795.247 4144.8 821.289V833.008L4172.15 836.914C4227.49 834.31 4260.04 833.008 4269.8 833.008C4283.48 835.612 4291.29 836.914 4293.24 836.914C4296.5 834.31 4305.61 833.008 4320.59 833.008C4323.84 833.008 4330.35 839.518 4340.12 852.539V872.07C4331 887.695 4319.28 895.508 4304.96 895.508H4269.8C4242.46 895.508 4213.82 896.81 4183.87 899.414C4169.54 896.81 4155.22 895.508 4140.9 895.508L4125.27 899.414C4094.02 899.414 4078.4 864.258 4078.4 793.945C4052.36 594.076 4035.43 443.034 4027.62 340.82C4017.2 301.107 4002.88 267.253 3984.65 239.258V223.633C3984.65 220.378 3991.16 213.867 4004.18 204.102ZM4776.68 218.75C4792.3 225.26 4800.77 232.422 4802.07 240.234L4801.09 255.859C4794.58 269.531 4790.35 287.435 4788.4 309.57C4864.57 363.607 4933.58 398.112 4995.43 413.086C5048.82 433.268 5074.53 455.078 5072.58 478.516C5071.28 492.188 5059.88 501.628 5038.4 506.836C5011.05 483.398 4959.62 460.938 4884.1 439.453C4856.76 428.385 4819.32 405.599 4771.8 371.094L4763.98 370.117C4760.08 415.039 4744.78 473.958 4718.09 546.875C4845.69 616.536 4908.52 663.411 4906.56 687.5C4896.15 705.078 4884.75 713.542 4872.38 712.891C4848.95 700.521 4800.77 670.247 4727.85 622.07L4693.67 603.516L4623.36 786.133C4685.86 825.846 4772.12 860.352 4882.15 889.648C4912.75 896.81 4927.07 911.133 4925.12 932.617C4916 950.195 4903.63 958.333 4888.01 957.031C4792.96 927.734 4725.57 904.948 4685.86 888.672C4637.68 861.328 4610.01 847.331 4602.85 846.68H4598.95C4598.29 857.096 4590.16 861.654 4574.53 860.352L4562.81 859.375C4553.05 858.724 4546.54 842.448 4543.28 810.547C4525.7 801.432 4517.57 787.76 4518.87 769.531L4519.84 757.812C4527.66 745.443 4538.72 739.909 4553.05 741.211L4572.58 746.094C4598.62 687.5 4620.1 630.534 4637.03 575.195C4625.31 560.872 4620.1 547.526 4621.41 535.156C4633.12 514.974 4648.1 505.859 4666.33 507.812C4690.42 442.057 4704.09 388.021 4707.34 345.703C4691.07 344.401 4682.93 332.031 4682.93 308.594C4683.58 298.177 4698.55 289.062 4727.85 281.25C4736.32 237.63 4752.59 216.797 4776.68 218.75Z" fill="#FE4629"/>
</svg>
